Coordinates
version=1
nRows=9
nColumns=24
inDegrees=yes

Units are S.I. units (second, meters, Newtons, ...)
Angles are in degrees.

endheader
time	pelvis_tilt	pelvis_list	pelvis_rotation	pelvis_tx	pelvis_ty	pelvis_tz	hip_flexion_r	hip_adduction_r	hip_rotation_r	knee_angle_r	ankle_angle_r	subtalar_angle_r	mtp_angle_r	hip_flexion_l	hip_adduction_l	hip_rotation_l	knee_angle_l	ankle_angle_l	subtalar_angle_l	mtp_angle_l	lumbar_extension	lumbar_bending	lumbar_rotation
      0.72900000	      0.36534103	      3.73401103	     14.48310101	      0.07900957	      0.97963854	      0.27645982	     23.82779840	     -8.24403813	     -5.83084438	      2.41434810	      7.78286059	    -18.04885481	      0.54175971	    -24.99147785	      1.14782334	     13.28348055	     -2.42929872	      9.15387377	     -9.08830280	      1.12347972	     -3.34054921	     -4.50606719	     -4.80139192
      0.73316667	      0.34420068	      3.65874980	     14.58610509	      0.08532822	      0.97898480	      0.27669537	     23.87744196	     -8.19430042	     -5.77481683	      1.97826846	      7.84657007	    -18.17754584	      5.23225607	    -25.10466789	      0.95161614	     13.17226146	     -2.79424437	      8.94865181	     -8.99957232	      9.29153423	     -3.23182947	     -4.40015603	     -4.89213656
      0.73733333	      0.36618024	      3.57104774	     14.69395601	      0.09170271	      0.97844567	      0.27694796	     23.85704519	     -8.11310806	     -5.70909374	      1.54039320	      7.86766547	    -18.32147121	      5.22846564	    -25.27205010	      0.73074950	     13.15583468	     -3.14347511	      8.72294322	     -9.00519417	      9.29948833	     -3.18112464	     -4.28230840	     -4.93062546
      0.74150000	      0.39486756	      3.47158249	     14.77962593	      0.09813028	      0.97793514	      0.27724396	     23.84034037	     -8.00259672	     -5.62344486	      1.05592607	      7.84083780	    -18.49254918	      5.22615990	    -25.43828620	      0.50520124	     13.10932817	     -3.50563745	      8.48444281	     -8.99699239	      9.31608519	     -3.12606350	     -4.13997774	     -4.97837062
      0.74566667	      0.42578940	      3.33997971	     14.84176669	      0.10464845	      0.97745020	      0.27760466	     23.80247841	     -7.83774723	     -5.44549809	      0.59677171	      7.68057732	    -18.80624412	      5.22843610	    -25.59179903	      0.25334454	     12.99616351	     -3.88408773	      8.22846187	     -8.89852974	      9.40376933	     -3.06208475	     -3.95215565	     -5.07356275
      0.74983333	      0.45930364	      3.20868248	     14.90656015	      0.11120749	      0.97701125	      0.27795397	     23.78489354	     -7.67004302	     -5.38422832	      0.06149168	      7.51778196	    -19.00672894	      5.23558895	    -25.72901854	      0.00536717	     12.88496766	     -4.30138245	      7.95788564	     -8.85009496	      9.47777991	     -2.96774514	     -3.76598201	     -5.10349430
      0.75400000	      0.49029934	      3.05815203	     14.95558496	      0.11780359	      0.97659317	      0.27837804	     23.76005122	     -7.46482486	     -5.24189318	     -0.45679983	      7.20367663	    -19.38086280	      5.28334275	    -25.82358484	     -0.25593854	     12.68313539	     -4.79058598	      7.74209761	     -8.64207222	      9.75851047	     -2.89795316	     -3.58417181	     -5.13553761
      0.75816667	      0.52083020	      2.89211873	     14.99018752	      0.12447645	      0.97621398	      0.27878963	     23.77302366	     -7.24058935	     -5.24234418	     -1.06601051	      6.97782365	    -19.46350916	      5.29735452	    -25.93491292	     -0.52182587	     12.55272655	     -5.23593774	      7.38532459	     -8.65466522	      9.82970600	     -2.79005342	     -3.36458716	     -5.15039965
      0.76233333	      0.54156661	      2.69836927	     15.01092366	      0.13121587	      0.97584973	      0.27924214	     23.79554028	     -6.97829702	     -5.22323314	     -1.67195741	      6.65736001	    -19.58751446	      5.32248402	    -26.01443034	     -0.80643880	     12.38009613	     -5.71345554	      7.01414607	     -8.61691041	      9.93865706	     -2.66487670	     -3.11988153	     -5.16420272
